<svg width="1200" height="800" viewBox="0 0 1200 800" fill="none" xmlns="http://www.w3.org/2000/svg">
  <defs>
    <radialGradient id="liveGlow" cx="68%" cy="40%" r="55%">
      <stop offset="0%" stop-color="#34D399" stop-opacity="0.24"/>
      <stop offset="100%" stop-color="#34D399" stop-opacity="0"/>
    </radialGradient>
  </defs>
  <rect width="1200" height="800" fill="#16130E"/>
  <rect width="1200" height="800" fill="url(#liveGlow)"/>
  <!-- window -->
  <g stroke="#F4F1EA" stroke-opacity="0.42" stroke-width="3.5" fill="none">
    <rect x="690" y="180" width="280" height="320" rx="10"/>
    <line x1="830" y1="180" x2="830" y2="500"/>
    <line x1="690" y1="340" x2="970" y2="340"/>
  </g>
  <rect x="690" y="180" width="280" height="320" rx="10" fill="#34D399" fill-opacity="0.06"/>
  <!-- desk line -->
  <line x1="120" y1="600" x2="1080" y2="600" stroke="#F4F1EA" stroke-opacity="0.4" stroke-width="3" stroke-linecap="round"/>
  <!-- desk lamp -->
  <g stroke="#F4F1EA" stroke-opacity="0.5" stroke-width="3.5" fill="none" stroke-linecap="round" stroke-linejoin="round">
    <path d="M300 600 V470 L380 410 L440 470"/>
    <path d="M438 466 l36 28"/>
  </g>
  <circle cx="455" cy="486" r="6" fill="#FBBF24" fill-opacity="0.7"/>
  <!-- plant -->
  <g stroke="#34D399" stroke-opacity="0.55" stroke-width="3" fill="none" stroke-linecap="round">
    <path d="M560 600 V540 M560 560 C540 540 528 560 524 580 M560 556 C580 536 596 552 600 572"/>
  </g>
  <path d="M548 600 h24 l-4 -44 h-16 Z" stroke="#F4F1EA" stroke-opacity="0.4" stroke-width="3" fill="none"/>
  <g stroke="#FFFFFF" stroke-opacity="0.18" stroke-width="2">
    <path d="M60 60 h44 M60 60 v44"/>
    <path d="M1140 740 h-44 M1140 740 v-44"/>
  </g>
</svg>
