<svg width="1200" height="800" viewBox="0 0 1200 800" fill="none" xmlns="http://www.w3.org/2000/svg">
  <defs>
    <radialGradient id="photoGlow" cx="50%" cy="58%" r="55%">
      <stop offset="0%" stop-color="#FF8A5C" stop-opacity="0.34"/>
      <stop offset="55%" stop-color="#FF8A5C" stop-opacity="0.10"/>
      <stop offset="100%" stop-color="#FF8A5C" stop-opacity="0"/>
    </radialGradient>
  </defs>
  <rect width="1200" height="800" fill="#16130E"/>
  <rect width="1200" height="800" fill="url(#photoGlow)"/>
  <!-- sun -->
  <circle cx="600" cy="470" r="120" fill="#FF8A5C" fill-opacity="0.18"/>
  <circle cx="600" cy="470" r="120" stroke="#FF8A5C" stroke-opacity="0.5" stroke-width="3"/>
  <!-- horizon -->
  <line x1="120" y1="470" x2="1080" y2="470" stroke="#F4F1EA" stroke-opacity="0.4" stroke-width="3" stroke-linecap="round"/>
  <g stroke="#FF8A5C" stroke-opacity="0.25" stroke-width="2">
    <line x1="120" y1="510" x2="1080" y2="510"/>
    <line x1="220" y1="548" x2="980" y2="548"/>
  </g>
  <!-- birds -->
  <g stroke="#F4F1EA" stroke-opacity="0.4" stroke-width="2.5" fill="none" stroke-linecap="round">
    <path d="M360 250 l22 -16 l22 16"/>
    <path d="M420 270 l18 -13 l18 13"/>
    <path d="M820 230 l22 -16 l22 16"/>
  </g>
  <!-- aperture hint -->
  <g stroke="#FFFFFF" stroke-opacity="0.16" stroke-width="2" fill="none">
    <path d="M600 360 L676 410 L660 498 L540 498 L524 410 Z"/>
  </g>
  <g stroke="#FFFFFF" stroke-opacity="0.18" stroke-width="2">
    <path d="M60 60 h44 M60 60 v44"/>
    <path d="M1140 740 h-44 M1140 740 v-44"/>
  </g>
</svg>
